{
  "accessors": [
    {
      "bufferView": 2,
      "componentType": 5126,
      "count": 81,
      "max": [
        0.029592800885438919,
        0.6358640193939209,
        0.029592800885438919
      ],
      "min": [
        -0.029592800885438919,
        -0.90917402505874634,
        -0.029592800885438919
      ],
      "type": "VEC3"
    },
    {
      "bufferView": 2,
      "byteOffset": 972,
      "componentType": 5126,
      "count": 81,
      "max": [
        0.99878412485122681,
        1,
        0.99878412485122681
      ],
      "min": [
        -0.99878412485122681,
        -0.46171396970748901,
        -0.99878412485122681
      ],
      "type": "VEC3"
    },
    {
      "bufferView": 3,
      "componentType": 5126,
      "count": 81,
      "max": [
        0.99700701236724854,
        0.53583097457885742,
        0.99996501207351685,
        1
      ],
      "min": [
        -0.99980098009109497,
        -1,
        -0.99887901544570923,
        1
      ],
      "type": "VEC4"
    },
    {
      "bufferView": 1,
      "componentType": 5126,
      "count": 81,
      "max": [
        0.97158002853393555,
        0.29114800691604614
      ],
      "min": [
        0.05363599956035614,
        0.0061329999007284641
      ],
      "type": "VEC2"
    },
    {
      "bufferView": 0,
      "componentType": 5125,
      "count": 288,
      "max": [
        80
      ],
      "min": [
        0
      ],
      "type": "SCALAR"
    },
    {
      "bufferView": 2,
      "byteOffset": 1944,
      "componentType": 5126,
      "count": 126,
      "max": [
        0.28531000018119812,
        1,
        0.28531000018119812
      ],
      "min": [
        -0.28531000018119812,
        0.44927999377250671,
        -0.28531000018119812
      ],
      "type": "VEC3"
    },
    {
      "bufferView": 2,
      "byteOffset": 3456,
      "componentType": 5126,
      "count": 126,
      "max": [
        0.99925857782363892,
        0.94825512170791626,
        0.99925857782363892
      ],
      "min": [
        -0.99925857782363892,
        -0.98980903625488281,
        -0.99925857782363892
      ],
      "type": "VEC3"
    },
    {
      "bufferView": 3,
      "byteOffset": 1296,
      "componentType": 5126,
      "count": 126,
      "max": [
        0.99987900257110596,
        0.94518899917602539,
        0.99394398927688599,
        1
      ],
      "min": [
        -0.9857100248336792,
        -0.98570102453231812,
        -0.96583199501037598,
        1
      ],
      "type": "VEC4"
    },
    {
      "bufferView": 1,
      "byteOffset": 648,
      "componentType": 5126,
      "count": 126,
      "max": [
        0.77747297286987305,
        0.97608500719070435
      ],
      "min": [
        0.074449002742767334,
        0.010335999540984631
      ],
      "type": "VEC2"
    },
    {
      "bufferView": 0,
      "byteOffset": 1152,
      "componentType": 5125,
      "count": 576,
      "max": [
        125
      ],
      "min": [
        0
      ],
      "type": "SCALAR"
    },
    {
      "bufferView": 2,
      "byteOffset": 4968,
      "componentType": 5126,
      "count": 323,
      "max": [
        0.26537799835205078,
        1,
        0.26537701487541199
      ],
      "min": [
        -0.26537799835205078,
        -1,
        -0.26537799835205078
      ],
      "type": "VEC3"
    },
    {
      "bufferView": 2,
      "byteOffset": 8844,
      "componentType": 5126,
      "count": 323,
      "max": [
        1,
        1,
        1
      ],
      "min": [
        -1,
        -0.97919952869415283,
        -1
      ],
      "type": "VEC3"
    },
    {
      "bufferView": 3,
      "byteOffset": 3312,
      "componentType": 5126,
      "count": 323,
      "max": [
        0.99971699714660645,
        0.99940598011016846,
        0.97917002439498901,
        1
      ],
      "min": [
        -0.99999898672103882,
        -0.99855500459671021,
        -1,
        1
      ],
      "type": "VEC4"
    },
    {
      "bufferView": 1,
      "byteOffset": 1656,
      "componentType": 5126,
      "count": 323,
      "max": [
        0.91676497459411621,
        0.99683898687362671
      ],
      "min": [
        0.050071999430656433,
        0.14698399603366852
      ],
      "type": "VEC2"
    },
    {
      "bufferView": 0,
      "byteOffset": 3456,
      "componentType": 5125,
      "count": 1128,
      "max": [
        322
      ],
      "min": [
        0
      ],
      "type": "SCALAR"
    },
    {
      "bufferView": 2,
      "byteOffset": 12720,
      "componentType": 5126,
      "count": 54,
      "max": [
        0.017190100625157356,
        0.70957398414611816,
        0.017190100625157356
      ],
      "min": [
        -0.017190100625157356,
        0.6358640193939209,
        -0.017190400511026382
      ],
      "type": "VEC3"
    },
    {
      "bufferView": 2,
      "byteOffset": 13368,
      "componentType": 5126,
      "count": 54,
      "max": [
        1,
        1,
        1
      ],
      "min": [
        -1,
        -0.12910404801368713,
        -1
      ],
      "type": "VEC3"
    },
    {
      "bufferView": 3,
      "byteOffset": 8480,
      "componentType": 5126,
      "count": 54,
      "max": [
        0.99990302324295044,
        0.5163080096244812,
        0.99627602100372314,
        1
      ],
      "min": [
        -0.99938100576400757,
        -0.44653001427650452,
        -0.99969297647476196,
        1
      ],
      "type": "VEC4"
    },
    {
      "bufferView": 1,
      "byteOffset": 4240,
      "componentType": 5126,
      "count": 54,
      "max": [
        0.27658900618553162,
        0.98910099267959595
      ],
      "min": [
        0.061436999589204788,
        0.18086299300193787
      ],
      "type": "VEC2"
    },
    {
      "bufferView": 0,
      "byteOffset": 7968,
      "componentType": 5125,
      "count": 216,
      "max": [
        53
      ],
      "min": [
        0
      ],
      "type": "SCALAR"
    }
  ],
  "asset": {
    "extras": {
      "author": "JanskiArt (https://sketchfab.com/aftertheend.93)",
      "license": "CC-BY-4.0 (http://creativecommons.org/licenses/by/4.0/)",
      "source": "https://sketchfab.com/models/aea464310259449a8763003672c33a94",
      "title": "game ready Old floor lamp (lowpoly)"
    },
    "generator": "Sketchfab-3.54.8-rc1",
    "version": "2.0"
  },
  "bufferViews": [
    {
      "buffer": 0,
      "byteLength": 8832,
      "byteOffset": 0,
      "name": "floatBufferViews",
      "target": 34963
    },
    {
      "buffer": 0,
      "byteLength": 4672,
      "byteOffset": 8832,
      "byteStride": 8,
      "name": "floatBufferViews",
      "target": 34962
    },
    {
      "buffer": 0,
      "byteLength": 14016,
      "byteOffset": 13504,
      "byteStride": 12,
      "name": "floatBufferViews",
      "target": 34962
    },
    {
      "buffer": 0,
      "byteLength": 9344,
      "byteOffset": 27520,
      "byteStride": 16,
      "name": "floatBufferViews",
      "target": 34962
    }
  ],
  "buffers": [
    {
      "byteLength": 36864,
      "uri": "scene.bin"
    }
  ],
  "images": [
    {
      "uri": "textures/plastic_baseColor.jpeg"
    },
    {
      "uri": "textures/plastic_metallicRoughness.png"
    },
    {
      "uri": "textures/plastic_normal.jpeg"
    },
    {
      "uri": "textures/PAPER_baseColor.jpeg"
    },
    {
      "uri": "textures/PAPER_metallicRoughness.png"
    },
    {
      "uri": "textures/PAPER_normal.jpeg"
    },
    {
      "uri": "textures/lamp_baseColor.jpeg"
    },
    {
      "uri": "textures/lamp_metallicRoughness.png"
    },
    {
      "uri": "textures/lamp_normal.jpeg"
    },
    {
      "uri": "textures/metal_baseColor.jpeg"
    },
    {
      "uri": "textures/metal_metallicRoughness.png"
    },
    {
      "uri": "textures/metal_normal.jpeg"
    }
  ],
  "materials": [
    {
      "doubleSided": true,
      "emissiveFactor": [
        0,
        0,
        0
      ],
      "name": "plastic",
      "normalTexture": {
        "index": 2,
        "scale": 1,
        "texCoord": 0
      },
      "occlusionTexture": {
        "index": 1,
        "strength": 1,
        "texCoord": 0
      },
      "pbrMetallicRoughness": {
        "baseColorFactor": [
          1,
          1,
          1,
          1
        ],
        "baseColorTexture": {
          "index": 0,
          "texCoord": 0
        },
        "metallicFactor": 1,
        "metallicRoughnessTexture": {
          "index": 1,
          "texCoord": 0
        },
        "roughnessFactor": 1
      }
    },
    {
      "doubleSided": true,
      "emissiveFactor": [
        0,
        0,
        0
      ],
      "name": "PAPER",
      "normalTexture": {
        "index": 5,
        "scale": 1,
        "texCoord": 0
      },
      "occlusionTexture": {
        "index": 4,
        "strength": 1,
        "texCoord": 0
      },
      "pbrMetallicRoughness": {
        "baseColorFactor": [
          1,
          1,
          1,
          1
        ],
        "baseColorTexture": {
          "index": 3,
          "texCoord": 0
        },
        "metallicFactor": 1,
        "metallicRoughnessTexture": {
          "index": 4,
          "texCoord": 0
        },
        "roughnessFactor": 1
      }
    },
    {
      "doubleSided": true,
      "emissiveFactor": [
        0,
        0,
        0
      ],
      "name": "metal",
      "normalTexture": {
        "index": 11,
        "scale": 1,
        "texCoord": 0
      },
      "occlusionTexture": {
        "index": 10,
        "strength": 1,
        "texCoord": 0
      },
      "pbrMetallicRoughness": {
        "baseColorFactor": [
          1,
          1,
          1,
          1
        ],
        "baseColorTexture": {
          "index": 9,
          "texCoord": 0
        },
        "metallicFactor": 1,
        "metallicRoughnessTexture": {
          "index": 10,
          "texCoord": 0
        },
        "roughnessFactor": 1
      }
    },
    {
      "doubleSided": true,
      "emissiveFactor": [
        0.32769939473049048,
        0.26773357545838061,
        0.11610657407375044
      ],
      "name": "lamp",
      "normalTexture": {
        "index": 8,
        "scale": 1,
        "texCoord": 0
      },
      "occlusionTexture": {
        "index": 7,
        "strength": 1,
        "texCoord": 0
      },
      "pbrMetallicRoughness": {
        "baseColorFactor": [
          1,
          1,
          1,
          1
        ],
        "baseColorTexture": {
          "index": 6,
          "texCoord": 0
        },
        "metallicFactor": 1,
        "metallicRoughnessTexture": {
          "index": 7,
          "texCoord": 0
        },
        "roughnessFactor": 1
      }
    }
  ],
  "meshes": [
    {
      "name": "defaultMaterial",
      "primitives": [
        {
          "attributes": {
            "NORMAL": 1,
            "POSITION": 0,
            "TANGENT": 2,
            "TEXCOORD_0": 3
          },
          "indices": 4,
          "material": 0,
          "mode": 4
        }
      ]
    },
    {
      "name": "defaultMaterial",
      "primitives": [
        {
          "attributes": {
            "NORMAL": 6,
            "POSITION": 5,
            "TANGENT": 7,
            "TEXCOORD_0": 8
          },
          "indices": 9,
          "material": 1,
          "mode": 4
        }
      ]
    },
    {
      "name": "defaultMaterial",
      "primitives": [
        {
          "attributes": {
            "NORMAL": 11,
            "POSITION": 10,
            "TANGENT": 12,
            "TEXCOORD_0": 13
          },
          "indices": 14,
          "material": 2,
          "mode": 4
        }
      ]
    },
    {
      "name": "defaultMaterial",
      "primitives": [
        {
          "attributes": {
            "NORMAL": 16,
            "POSITION": 15,
            "TANGENT": 17,
            "TEXCOORD_0": 18
          },
          "indices": 19,
          "material": 3,
          "mode": 4
        }
      ]
    }
  ],
  "nodes": [
    {
      "children": [
        1
      ],
      "name": "RootNode (gltf orientation matrix)",
      "rotation": [
        -0.70710678118654746,
        -0,
        -0,
        0.70710678118654757
      ]
    },
    {
      "children": [
        2
      ],
      "name": "RootNode (model correction matrix)"
    },
    {
      "children": [
        3
      ],
      "matrix": [
        1,
        0,
        0,
        0,
        0,
        -4.3711390063094768e-08,
        0.999999999999999,
        0,
        0,
        -0.999999999999999,
        -4.3711390063094768e-08,
        0,
        0,
        0,
        0,
        1
      ],
      "name": "Collada visual scene group"
    },
    {
      "children": [
        4,
        5,
        6,
        7
      ],
      "name": "floor_lamp_low_Cylinder"
    },
    {
      "mesh": 0,
      "name": "defaultMaterial"
    },
    {
      "mesh": 1,
      "name": "defaultMaterial"
    },
    {
      "mesh": 2,
      "name": "defaultMaterial"
    },
    {
      "mesh": 3,
      "name": "defaultMaterial"
    }
  ],
  "samplers": [
    {
      "magFilter": 9729,
      "minFilter": 9987,
      "wrapS": 10497,
      "wrapT": 10497
    }
  ],
  "scene": 0,
  "scenes": [
    {
      "name": "OSG_Scene",
      "nodes": [
        0
      ]
    }
  ],
  "textures": [
    {
      "sampler": 0,
      "source": 0
    },
    {
      "sampler": 0,
      "source": 1
    },
    {
      "sampler": 0,
      "source": 2
    },
    {
      "sampler": 0,
      "source": 3
    },
    {
      "sampler": 0,
      "source": 4
    },
    {
      "sampler": 0,
      "source": 5
    },
    {
      "sampler": 0,
      "source": 6
    },
    {
      "sampler": 0,
      "source": 7
    },
    {
      "sampler": 0,
      "source": 8
    },
    {
      "sampler": 0,
      "source": 9
    },
    {
      "sampler": 0,
      "source": 10
    },
    {
      "sampler": 0,
      "source": 11
    }
  ]
}

