{"asset":{"generator":"3D Builder","version":"2.0"},"scene":0,"scenes":[{"nodes":[0]}],"nodes":[{"mesh":0,"matrix":[1,0,0,0,0,-1.1920928955078125E-7,-0.99999988079071045,0,0,0.99999988079071045,-1.1920928955078125E-7,0,0,-8.8398049730847861E-13,-7.41536496207118E-6,1]}],"meshes":[{"primitives":[{"attributes":{"POSITION":0},"mode":4,"indices":4,"material":0},{"attributes":{"POSITION":1},"mode":4,"indices":5,"material":1},{"attributes":{"POSITION":2,"COLOR_0":3},"mode":4,"indices":6}]}],"materials":[{"name":"lambert265","pbrMetallicRoughness":{"baseColorFactor":[0.5,0.5,0.5,1],"metallicFactor":0,"roughnessFactor":0.25816389918327332},"alphaMode":"OPAQUE"},{"name":"lambert266","pbrMetallicRoughness":{"baseColorFactor":[0.5,0.5,0.5,1],"metallicFactor":0,"roughnessFactor":0.25816389918327332},"alphaMode":"OPAQUE"}],"accessors":[{"bufferView":0,"byteOffset":0,"count":579,"componentType":5126,"type":"VEC3","min":[-0.03245023638010025,-0.031386680901050568,0.046372771263122559],"max":[0.042303122580051422,0.018895110115408897,0.092799082398414612]},{"bufferView":0,"byteOffset":6948,"count":1767,"componentType":5126,"type":"VEC3","min":[-0.064097248017787933,-0.054519515484571457,0.0014458022778853774],"max":[0.061901785433292389,0.050167277455329895,0.059545639902353287]},{"bufferView":0,"byteOffset":28152,"count":8493,"componentType":5126,"type":"VEC3","min":[-0.066935308277606964,-0.056875642389059067,0],"max":[0.066935308277606964,0.056860808283090591,0.10934548825025558]},{"bufferView":1,"byteOffset":0,"count":8493,"componentType":5121,"type":"VEC4","normalized":true},{"bufferView":2,"byteOffset":0,"count":2427,"componentType":5125,"type":"SCALAR"},{"bufferView":2,"byteOffset":9708,"count":7659,"componentType":5125,"type":"SCALAR"},{"bufferView":2,"byteOffset":40344,"count":38586,"componentType":5125,"type":"SCALAR"}],"bufferViews":[{"buffer":0,"byteOffset":0,"byteLength":130068,"byteStride":12,"target":34962},{"buffer":0,"byteOffset":130068,"byteLength":33972,"byteStride":4,"target":34962},{"buffer":0,"byteOffset":164040,"byteLength":194688,"target":34963}],"buffers":[{"byteLength":358728,"uri":"lara2.bin"}]}