{"asset":{"generator":"3D Builder","version":"2.0"},"scene":0,"scenes":[{"nodes":[0]}],"nodes":[{"children":[1,2]},{"mesh":0,"matrix":[1,0,0,0,0,-1.1920928955078125E-7,-0.99999988079071045,0,0,0.99999988079071045,-1.1920928955078125E-7,0,0,-6.9303497131616848E-14,-5.8135981362283928E-7,1]},{"mesh":1,"matrix":[1,0,0,0,0,-1.1920928955078125E-7,-0.99999988079071045,0,0,0.99999988079071045,-1.1920928955078125E-7,0,0,-6.9303497131616848E-14,-5.8135981362283928E-7,1]}],"meshes":[{"primitives":[{"attributes":{"POSITION":0,"TEXCOORD_0":1},"mode":4,"indices":2,"material":0}]},{"primitives":[{"attributes":{"POSITION":3,"TEXCOORD_0":4},"mode":4,"indices":5,"material":0}]}],"materials":[{"pbrMetallicRoughness":{"baseColorFactor":[1,1,1,1],"metallicFactor":1,"roughnessFactor":1,"baseColorTexture":{"index":0,"texCoord":0},"metallicRoughnessTexture":{"index":1,"texCoord":0}},"alphaMode":"OPAQUE"}],"textures":[{"source":0,"sampler":0},{"source":1,"sampler":0}],"images":[{"uri":"textures\\RootNode_baseColor.png"},{"uri":"textures\\RootNode_metallicRoughness_10852638490067281019_10852638490067281019.png"}],"samplers":[{"magFilter":9729,"wrapS":10497,"wrapT":10497}],"accessors":[{"bufferView":0,"byteOffset":0,"count":458,"componentType":5126,"type":"VEC3","min":[-19.16058349609375,0.13726425170898438,0],"max":[19.16058349609375,3.3851261138916016,90.5108871459961]},{"bufferView":1,"byteOffset":0,"count":458,"componentType":5126,"type":"VEC2"},{"bufferView":2,"byteOffset":0,"count":1578,"componentType":5125,"type":"SCALAR"},{"bufferView":3,"byteOffset":0,"count":126,"componentType":5126,"type":"VEC3","min":[15.351752281188965,-3.3851273059844971,40.8986930847168],"max":[17.792133331298828,0.17442767322063446,43.467037200927734]},{"bufferView":4,"byteOffset":0,"count":126,"componentType":5126,"type":"VEC2"},{"bufferView":5,"byteOffset":0,"count":468,"componentType":5125,"type":"SCALAR"}],"bufferViews":[{"buffer":0,"byteOffset":0,"byteLength":5496,"byteStride":12,"target":34962},{"buffer":0,"byteOffset":5496,"byteLength":3664,"byteStride":8,"target":34962},{"buffer":0,"byteOffset":9160,"byteLength":6312,"target":34963},{"buffer":0,"byteOffset":15472,"byteLength":1512,"byteStride":12,"target":34962},{"buffer":0,"byteOffset":16984,"byteLength":1008,"byteStride":8,"target":34962},{"buffer":0,"byteOffset":17992,"byteLength":1872,"target":34963}],"buffers":[{"byteLength":19864,"uri":"scene.bin"}]}