{"asset":{"generator":"3D Builder","version":"2.0"},"scene":0,"scenes":[{"nodes":[0,1,2,3,4]}],"nodes":[{"mesh":0,"matrix":[39.370079040527344,0,0,0,0,-4.6932791519793682E-6,-39.370075225830078,0,0,39.370075225830078,-4.6932791519793682E-6,0,3.1454315185546875,1.2179385521449149E-5,102.16807556152344,1]},{"mesh":1,"matrix":[5807.1240234375,0,0,0,0,-0.00027108946233056486,-2274.06298828125,0,0,5810.75830078125,-0.00069269642699509859,0,-1.5411534309387207,69.540557861328125,112.26642608642578,1]},{"mesh":2,"matrix":[3406.69140625,0,0,0,0,-0.00071983254747465253,-6038.392578125,0,0,3437.88818359375,-0.00040982826612889767,0,8.5125045776367188,55.160179138183594,111.7490234375,1]},{"mesh":3,"matrix":[5701.984375,0,0,0,0,-0.00067972950637340546,-5701.98388671875,0,0,5701.98388671875,-0.00067972950637340546,0,-1.9013398885726929,33.491741180419922,111.94541931152344,1]},{"mesh":4,"matrix":[4435.53759765625,0,0,0,0,-0.00052875728579238057,-4435.537109375,0,0,4435.537109375,-0.00052875728579238057,0,10.06541919708252,13.21309757232666,112.26643371582031,1]}],"meshes":[{"primitives":[{"attributes":{"POSITION":0,"TEXCOORD_0":1},"mode":4,"indices":2,"material":0}]},{"primitives":[{"attributes":{"POSITION":3,"TEXCOORD_0":4},"mode":4,"indices":5,"material":1}]},{"primitives":[{"attributes":{"POSITION":6,"TEXCOORD_0":7},"mode":4,"indices":8,"material":2}]},{"primitives":[{"attributes":{"POSITION":9,"TEXCOORD_0":10},"mode":4,"indices":11,"material":3}]},{"primitives":[{"attributes":{"POSITION":12,"TEXCOORD_0":13},"mode":4,"indices":14,"material":4}]}],"materials":[{"pbrMetallicRoughness":{"baseColorFactor":[1,1,1,1],"metallicFactor":1,"roughnessFactor":1,"baseColorTexture":{"index":0,"texCoord":0},"metallicRoughnessTexture":{"index":1,"texCoord":0}},"alphaMode":"OPAQUE"},{"pbrMetallicRoughness":{"baseColorFactor":[1,1,1,1],"metallicFactor":1,"roughnessFactor":1,"baseColorTexture":{"index":2,"texCoord":0},"metallicRoughnessTexture":{"index":3,"texCoord":0}},"alphaMode":"OPAQUE"},{"pbrMetallicRoughness":{"baseColorFactor":[1,1,1,1],"metallicFactor":1,"roughnessFactor":1,"baseColorTexture":{"index":4,"texCoord":0},"metallicRoughnessTexture":{"index":5,"texCoord":0}},"alphaMode":"OPAQUE"},{"pbrMetallicRoughness":{"baseColorFactor":[1,1,1,1],"metallicFactor":1,"roughnessFactor":1,"baseColorTexture":{"index":6,"texCoord":0},"metallicRoughnessTexture":{"index":7,"texCoord":0}},"alphaMode":"OPAQUE"},{"pbrMetallicRoughness":{"baseColorFactor":[1,1,1,1],"metallicFactor":1,"roughnessFactor":1,"baseColorTexture":{"index":8,"texCoord":0},"metallicRoughnessTexture":{"index":9,"texCoord":0}},"alphaMode":"OPAQUE"}],"textures":[{"source":0,"sampler":0},{"source":1,"sampler":0},{"source":2,"sampler":0},{"source":3,"sampler":0},{"source":4,"sampler":0},{"source":5,"sampler":0},{"source":6,"sampler":0},{"source":7,"sampler":0},{"source":8,"sampler":0},{"source":9,"sampler":0}],"images":[{"uri":"textures\\JapaneseLamp_baseColor.jpg"},{"uri":"textures\\JapaneseLamp_metallicRoughness_10852638490067281019.png"},{"uri":"textures\\1799931341_1024x1024_11563080508590297124.png"},{"uri":"textures\\1817720156_1024x1024_12154559721164250551.png"},{"uri":"textures\\1916155403_1024x1024_17026833529806663332.png"},{"uri":"textures\\1933944218_1024x1024_17618312742380616759.png"},{"uri":"textures\\1567483217_1024x1024_1535343169432686052.png"},{"uri":"textures\\1585272032_1024x1024_18213029355133818487.png"},{"uri":"textures\\2264827589_1024x1024_12282369981943911396.png"},{"uri":"textures\\2282616404_1024x1024_10513312093935492215.png"}],"samplers":[{"magFilter":9729,"wrapS":10497,"wrapT":10497}],"accessors":[{"bufferView":0,"byteOffset":0,"count":777,"componentType":5126,"type":"VEC3","min":[-0.28947582840919495,-0.28947576880455017,0],"max":[0.28944098949432373,0.28944107890129089,2.1708872318267822]},{"bufferView":1,"byteOffset":0,"count":777,"componentType":5126,"type":"VEC2"},{"bufferView":2,"byteOffset":0,"count":2016,"componentType":5125,"type":"SCALAR"},{"bufferView":3,"byteOffset":0,"count":1506,"componentType":5126,"type":"VEC3","min":[-0.00060306896921247244,-0.00022752313816454262,-5.7957217904913705E-6],"max":[0.00061352871125563979,0.00022735702805221081,0.00206101406365633]},{"bufferView":4,"byteOffset":0,"count":1506,"componentType":5126,"type":"VEC2"},{"bufferView":5,"byteOffset":0,"count":9024,"componentType":5125,"type":"SCALAR"},{"bufferView":6,"byteOffset":0,"count":1216,"componentType":5126,"type":"VEC3","min":[-0.0010078533086925745,-0.00023463304387405515,5.7533575272827875E-6],"max":[0.0003855485119856894,0.00023422895174007863,0.0020657796412706375]},{"bufferView":7,"byteOffset":0,"count":1216,"componentType":5126,"type":"VEC2"},{"bufferView":8,"byteOffset":0,"count":7296,"componentType":5125,"type":"SCALAR"},{"bufferView":9,"byteOffset":0,"count":674,"componentType":5126,"type":"VEC3","min":[-0.00063598563428968191,-0.00022219057427719235,2.4015876078919973E-6],"max":[0.00070153491105884314,0.00022172786702867597,0.002061392180621624]},{"bufferView":10,"byteOffset":0,"count":674,"componentType":5126,"type":"VEC2"},{"bufferView":11,"byteOffset":0,"count":4032,"componentType":5125,"type":"SCALAR"},{"bufferView":12,"byteOffset":0,"count":866,"componentType":5126,"type":"VEC3","min":[-0.00058880320284515619,-0.00022971983707975596,-2.0373631741676945E-6],"max":[0.00022365317272488028,0.00022924388758838177,0.0020579430274665356]},{"bufferView":13,"byteOffset":0,"count":866,"componentType":5126,"type":"VEC2"},{"bufferView":14,"byteOffset":0,"count":5184,"componentType":5125,"type":"SCALAR"}],"bufferViews":[{"buffer":0,"byteOffset":0,"byteLength":9324,"byteStride":12,"target":34962},{"buffer":0,"byteOffset":9324,"byteLength":6216,"byteStride":8,"target":34962},{"buffer":0,"byteOffset":15540,"byteLength":8064,"target":34963},{"buffer":0,"byteOffset":23604,"byteLength":18072,"byteStride":12,"target":34962},{"buffer":0,"byteOffset":41676,"byteLength":12048,"byteStride":8,"target":34962},{"buffer":0,"byteOffset":53724,"byteLength":36096,"target":34963},{"buffer":0,"byteOffset":89820,"byteLength":14592,"byteStride":12,"target":34962},{"buffer":0,"byteOffset":104412,"byteLength":9728,"byteStride":8,"target":34962},{"buffer":0,"byteOffset":114140,"byteLength":29184,"target":34963},{"buffer":0,"byteOffset":143324,"byteLength":8088,"byteStride":12,"target":34962},{"buffer":0,"byteOffset":151412,"byteLength":5392,"byteStride":8,"target":34962},{"buffer":0,"byteOffset":156804,"byteLength":16128,"target":34963},{"buffer":0,"byteOffset":172932,"byteLength":10392,"byteStride":12,"target":34962},{"buffer":0,"byteOffset":183324,"byteLength":6928,"byteStride":8,"target":34962},{"buffer":0,"byteOffset":190252,"byteLength":20736,"target":34963}],"buffers":[{"byteLength":210988,"uri":"scene.bin"}]}