{
  "accessors": [
    {
      "bufferView": 1,
      "componentType": 5126,
      "count": 1536,
      "max": [
        0.8025394082069397,
        0.79174137115478516,
        3.9028584957122803
      ],
      "min": [
        -0.77849507331848145,
        -0.7638704776763916,
        -0.36846709251403809
      ],
      "type": "VEC3"
    },
    {
      "bufferView": 1,
      "byteOffset": 18432,
      "componentType": 5126,
      "count": 1536,
      "max": [
        0.98317044973373413,
        0.98534011840820312,
        0.99415463209152222
      ],
      "min": [
        -0.98844963312149048,
        -0.99260550737380981,
        -0.88491195440292358
      ],
      "type": "VEC3"
    },
    {
      "bufferView": 0,
      "componentType": 5125,
      "count": 2304,
      "max": [
        1535
      ],
      "min": [
        0
      ],
      "type": "SCALAR"
    },
    {
      "bufferView": 1,
      "byteOffset": 36864,
      "componentType": 5126,
      "count": 192,
      "max": [
        0.40519019961357117,
        0.2648794949054718,
        3.5102324485778809
      ],
      "min": [
        -0.16466453671455383,
        -0.25050362944602966,
        -1.002165675163269
      ],
      "type": "VEC3"
    },
    {
      "bufferView": 1,
      "byteOffset": 39168,
      "componentType": 5126,
      "count": 192,
      "max": [
        0.92173391580581665,
        0.92350047826766968,
        0.3643377423286438
      ],
      "min": [
        -0.92442482709884644,
        -0.92340224981307983,
        -0.25766211748123169
      ],
      "type": "VEC3"
    },
    {
      "bufferView": 0,
      "byteOffset": 9216,
      "componentType": 5125,
      "count": 288,
      "max": [
        191
      ],
      "min": [
        0
      ],
      "type": "SCALAR"
    }
  ],
  "asset": {
    "extras": {
      "author": "Vaidar (https://sketchfab.com/Vaidar)",
      "license": "CC-BY-4.0 (http://creativecommons.org/licenses/by/4.0/)",
      "source": "https://sketchfab.com/3d-models/lowpoly-tree-75fba1cab5ec4f2796579e784e4e6fb3",
      "title": "Lowpoly tree"
    },
    "generator": "Sketchfab-6.34.0",
    "version": "2.0"
  },
  "bufferViews": [
    {
      "buffer": 0,
      "byteLength": 10368,
      "byteOffset": 0,
      "name": "floatBufferViews",
      "target": 34963
    },
    {
      "buffer": 0,
      "byteLength": 41472,
      "byteOffset": 10368,
      "byteStride": 12,
      "name": "floatBufferViews",
      "target": 34962
    }
  ],
  "buffers": [
    {
      "byteLength": 51840,
      "uri": "scene.bin"
    }
  ],
  "materials": [
    {
      "doubleSided": true,
      "emissiveFactor": [
        0,
        0,
        0
      ],
      "name": "Material.005",
      "pbrMetallicRoughness": {
        "baseColorFactor": [
          0.012161479651957123,
          0.20594136762876553,
          0.047029559083452493,
          1
        ],
        "metallicFactor": 1,
        "roughnessFactor": 0.95770514949999996
      }
    },
    {
      "doubleSided": true,
      "emissiveFactor": [
        0,
        0,
        0
      ],
      "name": "Material.006",
      "pbrMetallicRoughness": {
        "baseColorFactor": [
          0.095307466600000001,
          0.042311410600000002,
          0.010960094,
          1
        ],
        "metallicFactor": 0,
        "roughnessFactor": 0.95770514949999996
      }
    }
  ],
  "meshes": [
    {
      "name": "Circle.017_Material.005_0",
      "primitives": [
        {
          "attributes": {
            "NORMAL": 1,
            "POSITION": 0
          },
          "indices": 2,
          "material": 0,
          "mode": 4
        }
      ]
    },
    {
      "name": "Circle.017_Material.006_0",
      "primitives": [
        {
          "attributes": {
            "NORMAL": 4,
            "POSITION": 3
          },
          "indices": 5,
          "material": 1,
          "mode": 4
        }
      ]
    }
  ],
  "nodes": [
    {
      "children": [
        1
      ],
      "name": "RootNode (gltf orientation matrix)",
      "rotation": [
        -0.70710678118654746,
        -0,
        -0,
        0.70710678118654757
      ]
    },
    {
      "children": [
        2
      ],
      "name": "RootNode (model correction matrix)"
    },
    {
      "children": [
        3
      ],
      "matrix": [
        1,
        0,
        0,
        0,
        0,
        0,
        1,
        0,
        0,
        -1,
        0,
        0,
        0,
        0,
        0,
        1
      ],
      "name": "2ba65ba99051431d9717d1b0aea90007.fbx"
    },
    {
      "children": [
        4
      ],
      "name": "RootNode"
    },
    {
      "children": [
        5,
        6
      ],
      "matrix": [
        89.062461853027344,
        0,
        0,
        0,
        0,
        -1.4510116793404283e-05,
        -89.062461853026164,
        0,
        0,
        74.205902099608394,
        -1.2089675984952089e-05,
        0,
        0,
        0,
        0,
        1
      ],
      "name": "Circle.017"
    },
    {
      "mesh": 0,
      "name": "Circle.017_Material.005_0"
    },
    {
      "mesh": 1,
      "name": "Circle.017_Material.006_0"
    }
  ],
  "scene": 0,
  "scenes": [
    {
      "name": "OSG_Scene",
      "nodes": [
        0
      ]
    }
  ]
}

